<?xml version="1.0" encoding="iso-8859-1"?>
<!-- Generator: Adobe Illustrator 19.0.0, SVG Export Plug-In . SVG Version: 6.00 Build 0)  -->
<svg xmlns="http://www.w3.org/2000/svg" xmlns:xlink="http://www.w3.org/1999/xlink" version="1.1" id="Capa_1" x="0px" y="0px" viewBox="0 0 512 512" style="enable-background:new 0 0 512 512;" xml:space="preserve" width="512px" height="512px">
<g>
	<g>
		<path d="M215.92,168.338c-4.142,0-7.5,3.357-7.5,7.5v8.016c0,4.143,3.358,7.5,7.5,7.5s7.5-3.357,7.5-7.5v-8.016    C223.42,171.695,220.062,168.338,215.92,168.338z" fill="#ffffff"/>
	</g>
</g>
<g>
	<g>
		<path d="M296.082,168.338c-4.142,0-7.5,3.357-7.5,7.5v8.016c0,4.143,3.357,7.5,7.5,7.5c4.142,0,7.5-3.357,7.5-7.5v-8.016    C303.582,171.695,300.224,168.338,296.082,168.338z" fill="#ffffff"/>
	</g>
</g>
<g>
	<g>
		<path d="M297.168,224.22c-2.796-4.874-7.821-7.784-13.443-7.784h-55.447c-5.622,0-10.647,2.91-13.444,7.784    c-2.822,4.919-2.793,10.787,0.078,15.695c8.509,14.548,24.254,23.585,41.089,23.585s32.58-9.037,41.089-23.585    C299.961,235.007,299.988,229.139,297.168,224.22z M284.141,232.342c-5.828,9.967-16.612,16.158-28.14,16.158    s-22.312-6.191-28.141-16.158c-0.059-0.101-0.198-0.338-0.014-0.658c0.142-0.248,0.302-0.248,0.431-0.248h55.447    c0.129,0,0.289,0,0.431,0.248C284.339,232.004,284.2,232.242,284.141,232.342z" fill="#ffffff"/>
	</g>
</g>
<g>
	<g>
		<path d="M175.92,464.936h-0.08c-4.142,0-7.46,3.358-7.46,7.5c0,4.142,3.398,7.5,7.54,7.5c4.142,0,7.5-3.358,7.5-7.5    C183.42,468.294,180.062,464.936,175.92,464.936z" fill="#ffffff"/>
	</g>
</g>
<g>
	<g>
		<path d="M393.824,342.132l-37.036-12.345l-14.253-19.005c-5.418-7.225-14.401-10.503-22.921-9.021v-22.477    c16.009-14.282,27.216-33.838,30.817-55.929c2.188,0.169,4.407,0.019,6.624-0.455c10.819-2.316,18.672-12.475,18.672-24.157    v-14.89c0-7.035-3.107-13.354-8.016-17.67v-22.927h56.629c3.542,0,6.601-2.478,7.336-5.943c0.735-3.465-1.054-6.972-4.291-8.411    l-68.803-30.579l-18.607-74.429C336.459,9.827,323.873,0,309.37,0H196.212c-15.486,0-28.573,11.087-31.119,26.362l-12.02,72.117    l-68.457,30.425c-3.237,1.438-5.026,4.946-4.291,8.411c0.735,3.465,3.794,5.943,7.336,5.943h56.629v22.927    c-4.909,4.316-8.016,10.635-8.016,17.67v14.89c0,11.682,7.853,21.841,18.672,24.157c2.216,0.474,4.435,0.624,6.624,0.455    c3.601,22.09,14.808,41.647,30.817,55.929v22.477c-8.521-1.482-17.503,1.796-22.921,9.021l-14.253,19.005l-37.036,12.345    c-22.738,7.58-38.016,28.776-38.016,52.744V504.5c0,4.142,3.358,7.5,7.5,7.5c4.142,0,7.5-3.358,7.5-7.5V394.876    c0-17.501,11.155-32.979,27.759-38.514l13.354-4.451V504.5c0,4.142,3.358,7.5,7.5,7.5c4.142,0,7.5-3.358,7.5-7.5v-56.629h128.772    c4.142,0,7.5-3.358,7.5-7.5c0-4.143-3.358-7.5-7.5-7.5h-96.708V370.3l14.863,14.864c4.414,4.413,10.43,6.892,16.647,6.892    c0.353,0,0.706-0.008,1.06-0.023c6.589-0.299,12.789-3.377,17.011-8.443l15.58-18.696v43.414c0,4.142,3.358,7.5,7.5,7.5    c4.142,0,7.5-3.358,7.5-7.5v-43.414l15.58,18.696c4.222,5.066,10.422,8.144,17.011,8.443c0.354,0.016,0.707,0.023,1.06,0.023    c6.217,0,12.233-2.479,16.647-6.892l14.863-14.863v62.571h-16.549c-4.142,0-7.5,3.357-7.5,7.5c0,4.142,3.358,7.5,7.5,7.5h48.614    V504.5c0,4.142,3.358,7.5,7.5,7.5c4.142,0,7.5-3.358,7.5-7.5V351.911l13.354,4.451c16.604,5.535,27.759,21.012,27.759,38.514    V504.5c0,4.142,3.358,7.5,7.5,7.5c4.142,0,7.5-3.358,7.5-7.5V394.876C431.84,370.908,416.563,349.712,393.824,342.132z     M168.341,432.871h-0.001h-17.064v-85.96l6.507-2.169l10.558,10.558V432.871z M179.889,28.828    c1.335-8.013,8.2-13.828,16.323-13.828H309.37c7.607,0,14.209,5.154,16.055,12.535l9.148,36.594H174.005L179.889,28.828z     M123.004,128.257l38.395-17.064h126.667c4.142,0,7.5-3.357,7.5-7.5c0-4.142-3.358-7.5-7.5-7.5H168.661l2.844-17.064h166.818    l4.266,17.064h-22.454c-4.142,0-7.5,3.358-7.5,7.5c0,4.143,3.358,7.5,7.5,7.5h30.468l38.395,17.064H123.004z M352.71,143.257    v17.078c-0.172-0.003-0.343-0.013-0.516-0.013h-16.032c-0.285,0-0.516-0.231-0.516-0.516v-16.549H352.71z M176.355,143.258v16.549    c0,0.284-0.231,0.516-0.516,0.516h-16.032c-0.173,0-0.344,0.01-0.516,0.013v-17.078H176.355z M175.324,207.903    c0-4.142-3.358-7.5-7.5-7.5c-4.142,0-7.5,3.358-7.5,7.5v0.496c-0.738,0.05-1.485-0.006-2.237-0.167    c-3.883-0.831-6.812-4.911-6.812-9.489v-14.89c0-4.704,3.828-8.532,8.532-8.532h16.032c8.556,0,15.516-6.96,15.516-15.516v-16.549    h129.29v16.549c0,8.556,6.96,15.516,15.516,15.516h16.032c4.705,0,8.532,3.828,8.532,8.532v14.89c0,4.578-2.928,8.658-6.812,9.489    c-0.751,0.161-1.498,0.216-2.237,0.167v-0.496c0-4.142-3.358-7.5-7.5-7.5c-4.142,0-7.5,3.358-7.5,7.5    c0,44.485-36.192,80.677-80.677,80.677S175.324,252.389,175.324,207.903z M221.397,373.986c-1.553,1.864-3.744,2.951-6.168,3.061    c-2.419,0.109-4.704-0.774-6.42-2.49l-39.099-39.1l11.756-15.675c2.545-3.394,7.262-4.399,10.969-2.339l52.004,28.892    L221.397,373.986z M256.001,335.598l-48.613-27.007v-18.308c14.256,8.444,30.877,13.298,48.613,13.298    c17.736,0,34.357-4.854,48.613-13.298v18.308L256.001,335.598z M303.192,374.557c-1.716,1.716-4.006,2.602-6.42,2.491    c-2.424-0.11-4.615-1.197-6.168-3.062l-23.043-27.651l52.004-28.892c3.708-2.061,8.423-1.055,10.969,2.339l11.756,15.675    L303.192,374.557z M360.728,432.871h-0.001h-17.064V355.3l10.558-10.558l6.507,2.169V432.871z" fill="#ffffff"/>
	</g>
</g>
<g>
	<g>
		<path d="M336.082,464.936c-4.142,0-7.5,3.358-7.5,7.5c0,4.142,3.358,7.5,7.5,7.5h0.08c4.142,0,7.46-3.358,7.46-7.5    C343.621,468.294,340.224,464.936,336.082,464.936z" fill="#ffffff"/>
	</g>
</g>
<g>
</g>
<g>
</g>
<g>
</g>
<g>
</g>
<g>
</g>
<g>
</g>
<g>
</g>
<g>
</g>
<g>
</g>
<g>
</g>
<g>
</g>
<g>
</g>
<g>
</g>
<g>
</g>
<g>
</g>
</svg>
