<svg id="_x33_0" enable-background="new 0 0 64 64" height="512" viewBox="0 0 64 64" width="512" xmlns="http://www.w3.org/2000/svg"><g><g><g><path d="m60.76 9.48c.79 1.67 1.24 3.54 1.24 5.52-2.36 5.39-5.22 10.54-8.54 15.36l-1.46-.36 2-6-2.69 1.61c3.1-4.37 5.87-8.98 8.28-13.79z" fill="#b4dd7f"/></g><g><path d="m59.56 7.44-20.66 20.66v.01c-.62-.07-1.26-.11-1.9-.11-1.61 0-3.17.22-4.64.64l24.2-24.2c.58.41 1.12.88 1.62 1.38s.97 1.04 1.38 1.62z" fill="#b4dd7f"/></g><g><path d="m54.52 3.24-2.34 1.17c-9.71 4.86-18.6 11.19-26.36 18.78-.36-1.73-1.21-3.28-2.41-4.49l.01-.01c7.54-6.93 16.18-12.58 25.58-16.69 1.98 0 3.85.45 5.52 1.24z" fill="#b4dd7f"/></g><g><path d="m17 14.2v1.8l-3.64-.61c-4.83-.8-8.36-4.97-8.36-9.86v-1.53l2.83.24c5.18.43 9.17 4.76 9.17 9.96z" fill="#b4dd7f"/></g><g><path d="m20.86 4.41c-.63 1.9-1.2 3.83-2.98 11.64-.29-.04-.58-.05-.88-.05v-1.8-9.37c0-.53.21-1.04.59-1.42l1-1c.26-.26.62-.41 1-.41.78 0 1.41.63 1.41 1.41v.16c0 .28-.05.57-.14.84z" fill="#cf9e76"/></g><g><path d="m17.88 16.05c.02-.01.05 0 .07 0 2.14.22 4.05 1.19 5.46 2.65 1.2 1.21 2.05 2.76 2.41 4.49.12.58.18 1.19.18 1.81v4.69c0 .73.06 1.47.19 2.19-3.78 3.12-6.19 7.84-6.19 13.12 0 5.59 2.7 10.55 6.87 13.65-2.49 2.09-5.71 3.35-9.21 3.35h-1.32c-3.96 0-7.54-1.6-10.14-4.2-2.6-2.6-4.2-6.18-4.2-10.14 0-2.4.6-4.76 1.75-6.87l2.66-4.88c1.04-1.91 1.59-4.05 1.59-6.22v-4.69c0-2.48 1.01-4.74 2.64-6.36 1.62-1.63 3.88-2.64 6.36-2.64v6z" fill="#fcd770"/></g><g><path d="m23.42 18.69-.01.01c-1.41-1.46-3.32-2.43-5.46-2.65l2.05-2.05c3.84-3.84 8.36-6.84 13.29-8.88 4.92-2.04 10.25-3.12 15.68-3.12h.03c-9.4 4.11-18.04 9.76-25.58 16.69z" fill="#a0d468"/></g><g><path d="m56.56 4.44-24.2 24.2c-2.29.65-4.38 1.76-6.17 3.24-.13-.72-.19-1.46-.19-2.19v-4.69c0-.62-.06-1.23-.18-1.81 7.76-7.59 16.65-13.92 26.36-18.78l2.34-1.17c.72.34 1.4.74 2.04 1.2z" fill="#a0d468"/></g><g><path d="m38.9 28.1 20.66-20.66c.46.64.86 1.32 1.2 2.04l-1.17 2.34c-2.41 4.81-5.18 9.42-8.28 13.79l-2.31 1.39-2-3-.13.5c-.48 1.93-1.56 3.65-3.08 4.91-1.53-.67-3.17-1.11-4.89-1.3z" fill="#a0d468"/></g><g><path d="m56 31-2.54-.64c3.32-4.82 6.18-9.97 8.54-15.36v.03c0 9.18-3.08 18.04-8.68 25.2-.49-1.7-1.24-3.28-2.21-4.71 1.38-1.75 3.03-3.28 4.89-4.52z" fill="#a0d468"/></g><g><path d="m53.46 30.36 2.54.64c-1.86 1.24-3.51 2.77-4.89 4.52-1.8-2.68-4.34-4.81-7.32-6.11 1.52-1.26 2.6-2.98 3.08-4.91l.13-.5 2 3 2.31-1.39 2.69-1.61-2 6z" fill="#8cc152"/></g><g><path d="m43.79 29.41c2.98 1.3 5.52 3.43 7.32 6.11.97 1.43 1.72 3.01 2.21 4.71v.01c.44 1.51.68 3.11.68 4.76 0 9.39-7.61 17-17 17-3.8 0-7.3-1.24-10.13-3.35-4.17-3.1-6.87-8.06-6.87-13.65 0-5.28 2.41-10 6.19-13.12 1.79-1.48 3.88-2.59 6.17-3.24 1.47-.42 3.03-.64 4.64-.64.64 0 1.28.04 1.9.11 1.72.19 3.36.63 4.89 1.3z" fill="#ff826e"/></g></g><g><path d="m24 45c0 .365.015.726.045 1.083l1.992-.165c-.024-.303-.037-.609-.037-.918 0-2.32.714-4.539 2.063-6.416l-1.623-1.168c-1.596 2.22-2.44 4.842-2.44 7.584z"/><path d="m24.409 48.25c.192.744.451 1.474.77 2.167l1.818-.834c-.27-.587-.488-1.203-.65-1.833z"/><path d="m7 47.657c0-1.559.395-3.106 1.141-4.475l.93-1.704-1.756-.958-.93 1.704c-.906 1.663-1.385 3.541-1.385 5.433 0 .495.032.99.096 1.473l1.982-.26c-.052-.397-.078-.805-.078-1.213z"/><path d="m5.607 51.324c.563 1.64 1.515 3.157 2.754 4.386l1.408-1.42c-1.021-1.014-1.807-2.264-2.27-3.615z"/><path d="m63 15.029c0-7.736-6.294-14.029-14.029-14.029-11.118 0-21.572 4.298-29.476 12.1.629-2.83 1.401-5.627 2.316-8.373.126-.373.189-.763.189-1.159v-.154c0-1.331-1.083-2.414-2.414-2.414-.637 0-1.259.258-1.707.707l-1 1c-.566.566-.879 1.32-.879 2.122v3.105c-1.824-2.604-4.736-4.415-8.087-4.694l-3.913-.327v2.616c0 5.087 3.433 9.429 8.285 10.657-3.142 1.688-5.285 5.004-5.285 8.814v4.685c0 2.001-.507 3.988-1.465 5.746l-2.662 4.879c-1.226 2.249-1.873 4.789-1.873 7.347 0 8.46 6.883 15.343 15.343 15.343h1.314c3.342 0 6.588-1.108 9.24-3.112 2.883 1.962 6.361 3.112 10.103 3.112 9.925 0 18-8.075 18-18 0-1.567-.222-3.079-.6-4.529 5.545-7.276 8.6-16.288 8.6-25.442zm-10.663 20.598c1.223-1.455 2.631-2.737 4.217-3.795l1.047-.698c-1.08 2.457-2.409 4.807-3.966 7.007-.363-.877-.806-1.712-1.298-2.514zm8.652-20.823c-2.06 4.677-4.541 9.189-7.357 13.462l2.172-6.515-1.14.684c2.123-3.281 4.078-6.683 5.82-10.167l.121-.242c.231.892.366 1.82.384 2.778zm-.324 5.334c-.461 3.544-1.402 7.012-2.776 10.304l-2.828-.707c2.052-3.083 3.93-6.29 5.604-9.597zm-1.028-10.649-.942 1.885c-2.342 4.682-5.064 9.221-8.088 13.495l-1.305.783-2.616-3.925 12.697-12.696c.087.152.173.303.254.458zm-16.086 18.763c-.836-.328-1.699-.598-2.59-.799l5.53-5.53-.586 2.336c-.388 1.547-1.21 2.906-2.354 3.993zm3.775-1.96 1.371 2.056 3.499-2.1-1.486 4.459 2.994.749c-.917.751-1.747 1.596-2.532 2.485-1.538-1.966-3.463-3.612-5.676-4.803.763-.844 1.386-1.798 1.83-2.846zm10.902-18.934-19.719 19.718c-.498-.041-.999-.076-1.509-.076-.564 0-1.12.034-1.671.085l21.313-21.313c.576.479 1.107 1.01 1.586 1.586zm-9.034-4.347c.959.018 1.888.153 2.78.384l-.242.121c-9.33 4.665-17.868 10.673-25.427 17.845-.367-.934-.867-1.8-1.482-2.573 7.248-6.532 15.437-11.842 24.371-15.777zm-22.179 27.024c-.004-.117-.015-.233-.015-.35v-4.685c0-.49-.047-.968-.116-1.439 7.609-7.371 16.263-13.516 25.742-18.256l1.885-.942c.155.081.307.167.458.255l-23.151 23.15c-1.723.52-3.339 1.287-4.803 2.267zm16.855-26.703c-7.406 3.745-14.261 8.442-20.441 14.019-1.006-.847-2.178-1.503-3.464-1.902l.742-.742c6.333-6.333 14.419-10.267 23.163-11.375zm-25.87 1.497c0-.267.104-.519.293-.708l1.001-1c.076-.077.183-.121.292-.121.228 0 .414.186.414.414v.154c0 .179-.028.355-.085.525-.726 2.177-1.364 4.384-1.915 6.615zm-12 .7v-.442l1.747.146c4.411.368 7.903 3.965 8.221 8.322l-4.262-4.262-1.414 1.414 3.794 3.794-.566-.094c-4.357-.727-7.52-4.461-7.52-8.878zm11.657 55.471h-1.314c-7.358 0-13.343-5.985-13.343-13.343 0-2.225.563-4.435 1.629-6.389l2.662-4.879c1.118-2.051 1.709-4.369 1.709-6.704v-4.685c0-4.072 3.06-7.436 7-7.931v3.676c-.421-.212-.779-.54-1-.982l-.105-.211-1.789.895.105.21c.722 1.446 2.174 2.343 3.789 2.343s3.067-.897 3.789-2.342l.105-.211-1.789-.895-.105.212c-.191.382-.479.691-.826.905.15-1.165.323-2.327.521-3.485 3.599.781 6.305 3.987 6.305 7.816v4.685c0 .608.052 1.216.131 1.818-3.749 3.301-6.131 8.121-6.131 13.497 0 5.441 2.436 10.315 6.264 13.618-2.223 1.542-4.881 2.382-7.607 2.382zm19.343 0c-8.822 0-16-7.178-16-16s7.178-16 16-16 16 7.178 16 16-7.178 16-16 16z"/></g></g></svg>