<?xml version="1.0" encoding="iso-8859-1"?>
<!-- Generator: Adobe Illustrator 17.1.0, SVG Export Plug-In . SVG Version: 6.00 Build 0)  -->
<!DOCTYPE svg PUBLIC "-//W3C//DTD SVG 1.1//EN" "http://www.w3.org/Graphics/SVG/1.1/DTD/svg11.dtd">
<svg xmlns="http://www.w3.org/2000/svg" xmlns:xlink="http://www.w3.org/1999/xlink" version="1.1" id="Capa_1" x="0px" y="0px" viewBox="0 0 204.992 204.992" style="enable-background:new 0 0 204.992 204.992;" xml:space="preserve" width="512px" height="512px">
<path d="M204.991,102.496c0-17.626-4.557-35.018-13.177-50.296c-9.57-16.96-23.687-30.798-40.825-40.019  C136.177,4.212,119.408,0,102.496,0C84.954,0,67.634,4.517,52.407,13.061c-17.152,9.625-31.113,23.88-40.374,41.221  C4.161,69.024,0,85.696,0,102.496c0,18.234,4.857,36.147,14.045,51.804c0.001,0.002,0.002,0.005,0.004,0.007  c9.959,16.966,24.474,30.647,41.976,39.564c0.002,0.001,0.004,0.002,0.005,0.003c14.48,7.377,30.113,11.118,46.465,11.118  c18.319,0,36.306-4.9,52.015-14.169c16.777-9.9,30.339-24.278,39.22-41.578c0.002-0.004,0.004-0.009,0.006-0.013  C201.1,134.885,204.991,118.725,204.991,102.496z M22.98,139.034C17.741,127.631,15,115.155,15,102.496  c0-11.435,2.256-22.797,6.573-33.306l25.613,18.537c-1.285,4.804-1.934,9.75-1.934,14.769c0,5.826,0.863,11.523,2.572,17.006  l-17.49,13.751L22.98,139.034z M89.016,142.529c-0.002-0.001-0.004-0.002-0.005-0.002c-11.397-3.838-20.645-12.383-25.374-23.443  c-2.245-5.252-3.384-10.833-3.384-16.588c0-5.149,0.924-10.193,2.748-14.993l0-0.002c4.272-11.244,13.165-20.159,24.402-24.461  c4.83-1.85,9.908-2.787,15.092-2.787c5.232,0,10.356,0.956,15.229,2.841c11.06,4.279,19.864,13.074,24.156,24.13  c1.896,4.886,2.858,10.024,2.858,15.271c0,4.68-0.772,9.3-2.294,13.73c-3.852,11.208-12.303,20.338-23.188,25.05  c-0.001,0-0.001,0.001-0.002,0.001c-5.306,2.297-10.945,3.461-16.758,3.461C97.906,144.738,93.371,143.995,89.016,142.529z   M182.687,67.465c4.797,10.991,7.304,22.944,7.304,35.03c0,11.077-2.006,21.76-5.974,31.864l-25.817-18.685  c1.022-4.312,1.538-8.725,1.538-13.18c0-5.219-0.702-10.359-2.092-15.343l22.645-17.803L182.687,67.465z M102.496,15  c11.54,0,22.998,2.295,33.583,6.686l-18.515,25.583c-9.812-2.682-20.375-2.678-30.184,0.013L67.673,22.215  C78.606,17.477,90.488,15,102.496,15z M102.496,189.992c-10.97,0-21.559-1.97-31.583-5.866l18.711-25.854  c4.216,0.975,8.526,1.466,12.873,1.466c5.902,0,11.673-0.887,17.226-2.644l9.881,12.568l9.635,12.255  C127.779,187.219,115.234,189.992,102.496,189.992z" fill="#ffffff"/>
<g>
</g>
<g>
</g>
<g>
</g>
<g>
</g>
<g>
</g>
<g>
</g>
<g>
</g>
<g>
</g>
<g>
</g>
<g>
</g>
<g>
</g>
<g>
</g>
<g>
</g>
<g>
</g>
<g>
</g>
</svg>
